<svg height="512pt" viewBox="0 0 512 511" width="512pt" xmlns="http://www.w3.org/2000/svg"><path d="m451 150.445312h61v30h-61zm0 0"/><path d="m0 150.445312h61v30h-61zm0 0"/><path d="m484.339844 279.953125-51.957032-30-15 25.988281 51.957032 30zm0 0"/><path d="m79.617188 80.941406 15-25.988281-51.957032-30-15 25.988281zm0 0"/><path d="m469.339844 24.953125-51.957032 30 15 25.988281 51.957032-30zm0 0"/><path d="m42.660156 305.941406 51.957032-30-15-25.988281-51.957032 30zm0 0"/><path d="m361 392.445312v-30h-210v30h30v30h-30v30h210v-30h-30v-30zm0 0"/><path d="m211 482.445312h90v30h-90zm0 0"/><path d="m421 165.445312c0-90.820312-73.277344-164.796874-165-164.945312-92.195312-.148438-164.070312 73.53125-164.933594 162.792969-.601562 62.410156 33.78125 120.289062 89.933594 148.976562v20.175781h150v-20.175781c54.988281-28.097656 90-84.683593 90-146.824219zm-183.28125 84.375-23.4375-18.75 40.503906-50.625h-60l79.496094-99.375 23.4375 18.75-40.503906 50.625h60zm0 0"/></svg>